#!OML:ASF F:\VICON\USERDATA\INSTALL\rory3\rory3.ASF
:FULLY-SPECIFIED
:DEGREES
151
root 1.0331 17.8205 -15.7723 8.2291 -3.4677 0.53625
lowerback 7.68272 -0.340597 -1.55506
upperback 0.152015 -0.471752 2.82053
thorax -4.11841 -0.176818 3.86187
lowerneck -15.9433 -3.69456 -10.699
upperneck 28.3178 -3.62211 4.7078
head 12.3058 -2.1705 3.05957
rclavicle 5.56597e-015 -7.95139e-015
rhumerus -33.7051 -6.25805 -80.5256
rradius 39.6712
rwrist 0.498326
rhand -12.027 15.497
rfingers 7.12502
rthumb 14.031 -14.0094
lclavicle 5.56597e-015 -7.95139e-015
lhumerus -32.7659 7.74051 86.2639
lradius 36.4224
lwrist -2.75385
lhand -14.3854 26.6841
lfingers 7.12502
lthumb 11.7574 56.3341
rfemur -15.5124 5.32389 20.8046
rtibia 23.2899
rfoot -10.1608 -9.78111
rtoes 3.68475
lfemur -15.8463 -3.57343 -21.983
ltibia 22.0765
lfoot -11.0879 6.1726
ltoes 1.12745
152
root 1.03785 17.817 -15.7813 8.4062 -3.11038 0.481914
lowerback 7.85079 -0.447986 -1.37233
upperback 0.176241 -0.596822 2.86845
thorax -4.1791 -0.24137 3.82486
lowerneck -16.0763 -3.75191 -10.7401
upperneck 28.2331 -3.67771 4.72097
head 12.3063 -2.19424 3.06031
rclavicle 1.11319e-014 2.8625e-014
rhumerus -33.6347 -6.00151 -80.6325
rradius 40.2062
rwrist 0.269359
rhand -12.0851 15.1343
rfingers 7.12502
rthumb 13.975 -14.376
lclavicle 1.11319e-014 2.8625e-014
lhumerus -32.7298 7.28781 86.5787
lradius 36.5913
lwrist -1.13109
lhand -16.4944 25.2635
lfingers 7.12502
lthumb 9.72315 55.019
rfemur -15.8152 4.99587 20.879
rtibia 23.4805
rfoot -10.2024 -9.79937
rtoes 3.54271
lfemur -16.3713 -3.85027 -21.8829
ltibia 22.5615
lfoot -11.1543 6.08763
ltoes 0.813454
153
root 1.03808 17.8135 -15.7957 8.68915 -2.69112 0.344239
lowerback 7.83302 -0.533838 -1.14225
upperback 0.254749 -0.688917 2.9351
thorax -4.08221 -0.293297 3.77276
lowerneck -16.3527 -3.84199 -10.6605
upperneck 28.1368 -3.77516 4.65955
head 12.3309 -2.23088 3.00385
rclavicle 4.17448e-015 -1.19271e-014
rhumerus -33.2994 -6.0355 -80.7274
rradius 40.5095
rwrist 0.274407
rhand -12.1916 15.1479
rfingers 7.12502
rthumb 13.8724 -14.3694
lclavicle 4.17448e-015 -1.19271e-014
lhumerus -32.5407 6.63967 86.9343
lradius 36.7257
lwrist 0.695689
lhand -18.9472 23.3847
lfingers 7.12502
lthumb 7.35607 53.2368
rfemur -16.2462 4.87553 21.0644
rtibia 23.6838
rfoot -10.2378 -10.1537
rtoes 2.87486
lfemur -17.0402 -4.23531 -21.6441
ltibia 23.0883
lfoot -11.177 6.08014
ltoes 0.601234
154
root 1.03746 17.8097 -15.8146 8.91529 -2.51052 0.203004
lowerback 7.99908 -0.516726 -0.965499
upperback 0.316085 -0.649019 2.96694
thorax -4.11608 -0.276733 3.70369
lowerneck -16.5878 -3.87348 -10.4894
upperneck 28.0074 -3.82422 4.61032
head 12.326 -2.23454 2.94396
rclavicle -9.74045e-015 2.8625e-014
rhumerus -33.1647 -6.09293 -80.8417
rradius 40.9196
rwrist 0.326563
rhand -12.506 15.6791
rfingers 7.12502
rthumb 13.5694 -13.8588
lclavicle -9.74045e-015 2.8625e-014
lhumerus -32.2854 6.48877 86.8998
lradius 37.3465
lwrist -0.582975
lhand -16.5413 25.1596
lfingers 7.12502
lthumb 9.67797 54.9173
rfemur -16.6554 4.92975 21.2278
rtibia 23.8923
rfoot -10.2632 -10.4506
rtoes 2.67245
lfemur -17.6759 -4.36394 -21.4338
ltibia 23.6802
lfoot -11.3135 6.03414
ltoes 0.557628
155
root 1.04055 17.8005 -15.8382 9.05331 -2.32816 0.0550241
lowerback 8.39222 -0.492104 -0.680733
upperback 0.396689 -0.588589 2.95641
thorax -4.25988 -0.251209 3.53051
lowerneck -16.7855 -3.95392 -10.5097
upperneck 27.8165 -3.95513 4.77782
head 12.3058 -2.26654 2.9861
rclavicle 3.18055e-015 7.95139e-016
rhumerus -33.1526 -6.1913 -80.9567
rradius 41.4849
rwrist 0.230674
rhand -12.7255 16.2466
rfingers 7.12502
rthumb 13.3577 -13.3052
lclavicle 3.18055e-015 7.95139e-016
lhumerus -32.1213 6.10033 86.9313
lradius 38.0169
lwrist -0.865662
lhand -15.5211 25.5705
lfingers 7.12502
lthumb 10.6622 55.28
rfemur -16.9672 4.81689 21.3768
rtibia 24.0866
rfoot -10.3596 -10.4687
rtoes 3.09827
lfemur -18.2729 -4.40165 -21.2468
ltibia 24.3308
lfoot -11.5715 5.94004
ltoes 0.666927
156
root 1.04523 17.7917 -15.8582 9.18724 -2.04961 -0.171815
lowerback 8.78731 -0.558494 -0.338627
upperback 0.430559 -0.636764 3.02004
thorax -4.44604 -0.279335 3.41637
lowerneck -16.8372 -4.03902 -10.603
upperneck 27.5985 -4.07329 4.89915
head 12.2458 -2.30818 3.0252
rclavicle 2.38542e-015 1.59028e-015
rhumerus -33.2123 -6.04785 -81.0472
rradius 42.0967
rwrist -0.0467423
rhand -12.6557 16.2912
rfingers 7.12502
rthumb 13.4251 -13.2562
lclavicle 2.38542e-015 1.59028e-015
lhumerus -32.1534 5.82839 86.9785
lradius 38.68
lwrist -0.568994
lhand -15.041 25.602
lfingers 7.12502
lthumb 11.1252 55.2871
rfemur -17.2618 4.57168 21.6338
rtibia 24.2909
rfoot -10.4251 -10.4444
rtoes 3.42693
lfemur -18.9198 -4.5027 -20.9736
ltibia 25.0326
lfoot -11.8415 5.9053
ltoes 0.510641
